<?xml version="1.0" encoding="utf-8"?>
<!-- Generator: Adobe Illustrator 22.0.0, SVG Export Plug-In . SVG Version: 6.00 Build 0)  -->
<svg version="1.1" id="Layer_1" xmlns="http://www.w3.org/2000/svg" xmlns:xlink="http://www.w3.org/1999/xlink" x="0px" y="0px"
	 viewBox="0 0 200 210" style="enable-background:new 0 0 200 210;" xml:space="preserve">
<style type="text/css">
	.st0{fill:#41B883;}
	.st1{fill:#FFFFFF;}
	.st2{fill:#35495E;}
</style>
<path class="st0" d="M181.2,2H18.8C9.8,2,2.5,9.4,2.5,18.4v173.7c0,9,7.3,16.3,16.3,16.3h162.3c9,0,16.3-7.3,16.3-16.3V18.4
	C197.5,9.4,190.2,2,181.2,2z"/>
<g>
	
		<rect x="46.8" y="45.9" transform="matrix(0.7071 -0.7071 0.7071 0.7071 -27.1788 66.9499)" class="st1" width="40.8" height="40.8"/>
	
		<rect x="112.4" y="46.2" transform="matrix(0.7071 -0.7071 0.7071 0.7071 -8.1788 113.4347)" class="st1" width="40.8" height="40.8"/>
	
		<rect x="79.8" y="78.8" transform="matrix(0.7071 -0.7071 0.7071 0.7071 -40.7784 99.8789)" class="st1" width="40.8" height="40.8"/>
</g>
<g>
	<g>
		<path class="st2" d="M35.5,169.1c-0.2-0.2-0.3-0.4-0.3-0.7v-9c0-0.3,0.1-0.5,0.3-0.7c0.2-0.2,0.4-0.2,0.7-0.2H40
			c1.2,0,2.1,0.3,2.7,0.9c0.6,0.6,1,1.4,1,2.4c0,1-0.3,1.9-1,2.4c-0.6,0.6-1.5,0.9-2.7,0.9h-2.8v3.3c0,0.3-0.1,0.6-0.3,0.7
			s-0.4,0.3-0.7,0.3C35.9,169.3,35.7,169.2,35.5,169.1z M39.7,163.5c1.4,0,2-0.6,2-1.8s-0.7-1.8-2-1.8h-2.5v3.6H39.7z"/>
		<path class="st2" d="M61.3,168.5c0,0.2-0.1,0.4-0.3,0.6c-0.2,0.2-0.4,0.2-0.7,0.2c-0.2,0-0.3,0-0.5-0.1c-0.1-0.1-0.3-0.2-0.4-0.3
			l-2-3.1c-0.2-0.3-0.4-0.6-0.7-0.7c-0.2-0.1-0.5-0.2-0.9-0.2h-1.5v3.4c0,0.3-0.1,0.6-0.3,0.7c-0.2,0.2-0.4,0.3-0.7,0.3
			s-0.5-0.1-0.7-0.3c-0.2-0.2-0.3-0.4-0.3-0.7v-9c0-0.3,0.1-0.5,0.3-0.7c0.2-0.2,0.4-0.2,0.7-0.2h3.8c1.2,0,2.2,0.3,2.8,0.8
			c0.6,0.5,1,1.3,1,2.4c0,0.8-0.2,1.5-0.7,2.1c-0.5,0.5-1.2,0.9-2,1c0.3,0.1,0.6,0.2,0.8,0.4c0.2,0.2,0.4,0.4,0.7,0.8l1.4,2.1
			C61.3,168.2,61.3,168.4,61.3,168.5z M58.6,162.9c0.3-0.3,0.5-0.7,0.5-1.3c0-0.6-0.2-1-0.5-1.3c-0.3-0.3-0.9-0.4-1.6-0.4h-2.6v3.4
			H57C57.7,163.4,58.3,163.2,58.6,162.9z"/>
		<path class="st2" d="M80,168.5c0,0.2-0.1,0.4-0.3,0.6c-0.2,0.2-0.4,0.2-0.7,0.2c-0.2,0-0.3,0-0.5-0.1c-0.1-0.1-0.3-0.2-0.3-0.4
			l-0.9-2.1h-5.4l-0.9,2.1c-0.1,0.2-0.2,0.3-0.3,0.4c-0.1,0.1-0.3,0.1-0.5,0.1c-0.2,0-0.5-0.1-0.6-0.2c-0.2-0.2-0.3-0.4-0.3-0.6
			c0-0.1,0-0.3,0.1-0.4l4.2-9.1c0.1-0.2,0.2-0.4,0.4-0.5s0.4-0.2,0.6-0.2c0.2,0,0.4,0.1,0.6,0.2c0.2,0.1,0.3,0.3,0.4,0.5l4.3,9.1
			C80,168.2,80,168.3,80,168.5z M72.6,165.2h4.1l-2-4.6L72.6,165.2z"/>
		<path class="st2" d="M97,163.6c0.1,0.1,0.2,0.3,0.2,0.5v3.3c0,0.5-0.1,0.8-0.2,1c-0.1,0.2-0.4,0.4-0.8,0.5
			c-0.4,0.1-0.9,0.3-1.4,0.3c-0.5,0.1-1.1,0.1-1.6,0.1c-1.1,0-2.1-0.2-2.9-0.7c-0.8-0.4-1.4-1.1-1.9-1.9c-0.4-0.8-0.7-1.8-0.7-3
			c0-1.1,0.2-2.1,0.7-3c0.4-0.8,1.1-1.5,1.9-1.9c0.8-0.4,1.7-0.7,2.8-0.7c1.4,0,2.6,0.4,3.6,1.2c0.1,0.1,0.2,0.2,0.3,0.3
			c0.1,0.1,0.1,0.2,0.1,0.4c0,0.2-0.1,0.4-0.2,0.6c-0.1,0.2-0.3,0.2-0.4,0.2c-0.1,0-0.2,0-0.3-0.1c-0.1,0-0.2-0.1-0.3-0.2
			c-0.5-0.3-0.9-0.5-1.3-0.7c-0.4-0.1-0.8-0.2-1.3-0.2c-1.1,0-2,0.3-2.5,1c-0.6,0.7-0.9,1.6-0.9,2.9c0,2.7,1.2,4,3.5,4
			c0.7,0,1.4-0.1,2.1-0.3v-2.7h-1.7c-0.2,0-0.4-0.1-0.6-0.2c-0.1-0.1-0.2-0.3-0.2-0.5s0.1-0.4,0.2-0.5c0.1-0.1,0.3-0.2,0.6-0.2h2.7
			C96.7,163.4,96.9,163.4,97,163.6z"/>
		<path class="st2" d="M116.9,158.6c0.2,0.2,0.3,0.4,0.3,0.7v9.1c0,0.3-0.1,0.5-0.2,0.7c-0.2,0.2-0.4,0.2-0.6,0.2
			c-0.3,0-0.5-0.1-0.6-0.2c-0.2-0.2-0.2-0.4-0.2-0.7v-6.3l-2.6,4.9c-0.1,0.2-0.3,0.4-0.4,0.5c-0.1,0.1-0.3,0.2-0.5,0.2
			c-0.2,0-0.4-0.1-0.5-0.2c-0.1-0.1-0.3-0.3-0.4-0.5l-2.6-4.9v6.3c0,0.3-0.1,0.5-0.2,0.7s-0.4,0.3-0.6,0.3c-0.3,0-0.5-0.1-0.6-0.2
			c-0.2-0.2-0.2-0.4-0.2-0.7v-9.1c0-0.3,0.1-0.5,0.3-0.7c0.2-0.2,0.4-0.3,0.7-0.3c0.4,0,0.7,0.2,0.9,0.7l3.4,6.5l3.4-6.5
			c0.2-0.4,0.5-0.7,0.9-0.7C116.5,158.3,116.7,158.4,116.9,158.6z"/>
		<path class="st2" d="M136.5,168.5c0,0.2-0.1,0.4-0.3,0.6c-0.2,0.2-0.4,0.2-0.7,0.2c-0.2,0-0.3,0-0.5-0.1c-0.1-0.1-0.3-0.2-0.3-0.4
			l-0.9-2.1h-5.4l-0.9,2.1c-0.1,0.2-0.2,0.3-0.3,0.4s-0.3,0.1-0.5,0.1c-0.2,0-0.5-0.1-0.6-0.2c-0.2-0.2-0.3-0.4-0.3-0.6
			c0-0.1,0-0.3,0.1-0.4l4.2-9.1c0.1-0.2,0.2-0.4,0.4-0.5c0.2-0.1,0.4-0.2,0.6-0.2c0.2,0,0.4,0.1,0.6,0.2s0.3,0.3,0.4,0.5l4.3,9.1
			C136.4,168.2,136.5,168.3,136.5,168.5z M129.1,165.2h4.1l-2-4.6L129.1,165.2z"/>
		<path class="st1" d="M146,168.2c-0.8-0.8-1.2-2-1.2-3.5v-5c0-0.4,0.1-0.8,0.4-1c0.3-0.3,0.6-0.4,1-0.4c0.4,0,0.8,0.1,1,0.4
			c0.3,0.3,0.4,0.6,0.4,1v5.1c0,0.8,0.2,1.4,0.5,1.8c0.3,0.4,0.9,0.6,1.5,0.6c0.7,0,1.2-0.2,1.5-0.6c0.3-0.4,0.5-1,0.5-1.8v-5.1
			c0-0.4,0.1-0.8,0.4-1c0.3-0.3,0.6-0.4,1-0.4c0.4,0,0.8,0.1,1,0.4c0.3,0.3,0.4,0.6,0.4,1v5c0,1.5-0.4,2.7-1.2,3.5
			c-0.8,0.8-2,1.2-3.6,1.2C148,169.4,146.8,169,146,168.2z"/>
		<path class="st1" d="M163.7,169c-0.3-0.3-0.4-0.6-0.4-1v-8.2c0-0.4,0.1-0.8,0.4-1c0.3-0.3,0.6-0.4,1-0.4c0.4,0,0.8,0.1,1,0.4
			c0.3,0.3,0.4,0.6,0.4,1v8.2c0,0.4-0.1,0.8-0.4,1s-0.6,0.4-1,0.4C164.3,169.3,164,169.2,163.7,169z"/>
	</g>
</g>
</svg>
